<svg width="24" height="24" viewBox="0 0 24 24" fill="none" xmlns="http://www.w3.org/2000/svg">
<path d="M15.3017 11.9975H12.0017M12.0017 11.9975H8.70166M12.0017 11.9975V8.69751M12.0017 11.9975V15.2975" stroke="#1C274C" stroke-width="2" stroke-linecap="round"/>
<path d="M23 12C23 17.1854 23 19.7782 21.389 21.389C19.7782 23 17.1854 23 12 23C6.81455 23 4.22182 23 2.61092 21.389C1 19.7782 1 17.1854 1 12C1 6.81455 1 4.22182 2.61092 2.61092C4.22182 1 6.81455 1 12 1C17.1854 1 19.7782 1 21.389 2.61092C22.4602 3.68203 22.8192 5.18721 22.9394 7.6" stroke="#1C274C" stroke-width="2" stroke-linecap="round"/>
</svg>
