<svg width="24" height="23" viewBox="0 0 24 23" fill="none" xmlns="http://www.w3.org/2000/svg">
<path d="M1 11.2315C1 7.1702 1 5.13957 2.26167 3.87788C3.52336 2.61621 5.55399 2.61621 9.61527 2.61621H13.9229C17.9841 2.61621 20.0149 2.61621 21.2765 3.87788C22.5382 5.13957 22.5382 7.1702 22.5382 11.2315V13.3853C22.5382 17.4465 22.5382 19.4773 21.2765 20.7389C20.0149 22.0006 17.9841 22.0006 13.9229 22.0006H9.61527C5.55399 22.0006 3.52336 22.0006 2.26167 20.7389C1 19.4773 1 17.4465 1 13.3853V11.2315Z" stroke="#1C274C" stroke-width="2"/>
<path d="M6.38477 2.61536V1" stroke="#1C274C" stroke-width="2" stroke-linecap="round"/>
<path d="M17.1538 2.61536V1" stroke="#1C274C" stroke-width="2" stroke-linecap="round"/>
<path d="M1.54004 7.99854H22.0013" stroke="#1C274C" stroke-width="2" stroke-linecap="round"/>
<path d="M18.2315 16.6143C18.2315 17.209 17.7493 17.6912 17.1545 17.6912C16.5598 17.6912 16.0776 17.209 16.0776 16.6143C16.0776 16.0195 16.5598 15.5374 17.1545 15.5374C17.7493 15.5374 18.2315 16.0195 18.2315 16.6143Z" fill="#1C274C"/>
<path d="M18.2315 12.3079C18.2315 12.9026 17.7493 13.3848 17.1545 13.3848C16.5598 13.3848 16.0776 12.9026 16.0776 12.3079C16.0776 11.7131 16.5598 11.231 17.1545 11.231C17.7493 11.231 18.2315 11.7131 18.2315 12.3079Z" fill="#1C274C"/>
<path d="M12.8467 16.6143C12.8467 17.209 12.3646 17.6912 11.7698 17.6912C11.175 17.6912 10.6929 17.209 10.6929 16.6143C10.6929 16.0195 11.175 15.5374 11.7698 15.5374C12.3646 15.5374 12.8467 16.0195 12.8467 16.6143Z" fill="#1C274C"/>
<path d="M12.8467 12.3079C12.8467 12.9026 12.3646 13.3848 11.7698 13.3848C11.175 13.3848 10.6929 12.9026 10.6929 12.3079C10.6929 11.7131 11.175 11.231 11.7698 11.231C12.3646 11.231 12.8467 11.7131 12.8467 12.3079Z" fill="#1C274C"/>
<path d="M7.46241 16.6143C7.46241 17.209 6.98026 17.6912 6.3855 17.6912C5.79075 17.6912 5.30859 17.209 5.30859 16.6143C5.30859 16.0195 5.79075 15.5374 6.3855 15.5374C6.98026 15.5374 7.46241 16.0195 7.46241 16.6143Z" fill="#1C274C"/>
<path d="M7.46241 12.3079C7.46241 12.9026 6.98026 13.3848 6.3855 13.3848C5.79075 13.3848 5.30859 12.9026 5.30859 12.3079C5.30859 11.7131 5.79075 11.231 6.3855 11.231C6.98026 11.231 7.46241 11.7131 7.46241 12.3079Z" fill="#1C274C"/>
</svg>
