<svg width="24" height="24" viewBox="0 0 24 24" fill="none" xmlns="http://www.w3.org/2000/svg">
<mask id="mask0_1_920" style="mask-type:luminance" maskUnits="userSpaceOnUse" x="0" y="0" width="24" height="24">
<path d="M24 0H0V24H24V0Z" fill="white"/>
</mask>
<g mask="url(#mask0_1_920)">
<path fill-rule="evenodd" clip-rule="evenodd" d="M9.00146 0C5.96389 0 3.50146 2.46243 3.50146 5.5C3.50146 8.53757 5.96389 11 9.00146 11C12.0391 11 14.5015 8.53757 14.5015 5.5C14.5015 2.46243 12.0391 0 9.00146 0ZM5.50146 5.5C5.50146 3.567 7.06846 2 9.00146 2C10.9345 2 12.5015 3.567 12.5015 5.5C12.5015 7.433 10.9345 9 9.00146 9C7.06846 9 5.50146 7.433 5.50146 5.5Z" fill="#1C274C"/>
<path d="M15.4985 0C14.9462 0 14.4985 0.447715 14.4985 1C14.4985 1.55228 14.9462 2 15.4985 2C17.4315 2 18.9985 3.567 18.9985 5.5C18.9985 7.433 17.4315 9 15.4985 9C14.9462 9 14.4985 9.44771 14.4985 10C14.4985 10.5523 14.9462 11 15.4985 11C18.5361 11 20.9985 8.53757 20.9985 5.5C20.9985 2.46243 18.5361 0 15.4985 0Z" fill="#1C274C"/>
<path d="M19.0825 14.0164C19.3036 13.5103 19.8931 13.2793 20.3992 13.5004C22.5162 14.4253 23.9988 16.5387 23.9988 19.0007V21.0007C23.9988 21.553 23.5511 22.0007 22.9988 22.0007C22.4465 22.0007 21.9988 21.553 21.9988 21.0007V19.0007C21.9988 17.362 21.0133 15.9512 19.5984 15.3331C19.0923 15.112 18.8613 14.5224 19.0825 14.0164Z" fill="#1C274C"/>
<path d="M6 13.0007C2.68629 13.0007 0 15.687 0 19.0007V21.0007C0 21.553 0.447715 22.0007 1 22.0007C1.55228 22.0007 2 21.553 2 21.0007V19.0007C2 16.7916 3.79086 15.0007 6 15.0007H12C14.2091 15.0007 16 16.7916 16 19.0007V21.0007C16 21.553 16.4477 22.0007 17 22.0007C17.5523 22.0007 18 21.553 18 21.0007V19.0007C18 15.687 15.3137 13.0007 12 13.0007H6Z" fill="#1C274C"/>
</g>
</svg>
